<svg width="24" height="24" viewBox="0 0 24 24" fill="none" xmlns="http://www.w3.org/2000/svg">
<path d="M12.2561 17.1763C12.0008 17.175 11.749 17.1169 11.5189 17.0062C11.2889 16.8955 11.0863 16.735 10.9261 16.5363L6.71605 11.4363C6.47004 11.1292 6.31524 10.7593 6.26927 10.3685C6.2233 9.9778 6.28802 9.58201 6.45605 9.22627C6.59233 8.9171 6.81472 8.65368 7.09667 8.46749C7.37862 8.2813 7.7082 8.1802 8.04605 8.17627H16.4661C16.8039 8.1802 17.1335 8.2813 17.4154 8.46749C17.6974 8.65368 17.9198 8.9171 18.0561 9.22627C18.2241 9.58201 18.2888 9.9778 18.2428 10.3685C18.1969 10.7593 18.0421 11.1292 17.7961 11.4363L13.5861 16.5363C13.4258 16.735 13.2232 16.8955 12.9932 17.0062C12.7631 17.1169 12.5113 17.175 12.2561 17.1763Z" fill="#A0A3BD"/>
</svg>
