<svg width="32" height="32" viewBox="0 0 32 32" fill="none" xmlns="http://www.w3.org/2000/svg">
<path d="M10.5859 28.7279C10.211 28.3528 10.0003 27.8442 10.0003 27.3139C10.0003 26.7836 10.211 26.275 10.5859 25.8999L20.4859 15.9999L10.5859 6.0999C10.2216 5.7227 10.02 5.21749 10.0246 4.6931C10.0291 4.16871 10.2395 3.66708 10.6103 3.29626C10.9811 2.92545 11.4827 2.71511 12.0071 2.71055C12.5315 2.706 13.0367 2.90759 13.4139 3.2719L24.7279 14.5859C25.1028 14.961 25.3135 15.4696 25.3135 15.9999C25.3135 16.5302 25.1028 17.0388 24.7279 17.4139L13.4139 28.7279C13.0388 29.1028 12.5302 29.3135 11.9999 29.3135C11.4696 29.3135 10.961 29.1028 10.5859 28.7279Z" fill="white"/>
</svg>
